<?xml version="1.0" encoding="utf-8"?>
<svg width="10px" height="8px" viewBox="0 0 10 8" version="1.1" xmlns:xlink="http://www.w3.org/1999/xlink" xmlns="http://www.w3.org/2000/svg">
  <desc>Created with Lunacy</desc>
  <path d="M9.51452 1.42411C9.51452 1.57757 9.45314 1.73103 9.34265 1.84152L4.06362 7.12054C3.95313 7.23104 3.79967 7.29242 3.64621 7.29242C3.49275 7.29242 3.33929 7.23104 3.2288 7.12054L0.171875 4.06362C0.061384 3.95313 0 3.79967 0 3.64621C0 3.49275 0.061384 3.33929 0.171875 3.2288L1.0067 2.39398C1.11719 2.28348 1.27065 2.2221 1.42411 2.2221C1.57757 2.2221 1.73103 2.28348 1.84152 2.39398L3.64621 4.2048L7.673 0.171875C7.78349 0.061384 7.93695 0 8.09041 0C8.24387 0 8.39733 0.061384 8.50782 0.171875L9.34265 1.0067C9.45314 1.11719 9.51452 1.27065 9.51452 1.42411Z" id="check---FontAwesome" fill="#FFFFFF" stroke="none" />
</svg>